<svg width="549" height="231" viewBox="0 0 549 231" fill="none" xmlns="http://www.w3.org/2000/svg">
<path d="M258.026 115.545C258.026 130.196 255.38 142.857 250.09 153.528C244.799 164.2 237.542 172.429 228.317 178.217C219.093 184.005 208.557 186.899 196.71 186.899C184.863 186.899 174.327 184.005 165.103 178.217C155.879 172.429 148.621 164.2 143.331 153.528C138.04 142.857 135.395 130.196 135.395 115.545C135.395 100.895 138.04 88.2339 143.331 77.5625C148.621 66.8911 155.879 58.6615 165.103 52.8736C174.327 47.0857 184.863 44.1918 196.71 44.1918C208.557 44.1918 219.093 47.0857 228.317 52.8736C237.542 58.6615 244.799 66.8911 250.09 77.5625C255.38 88.2339 258.026 100.895 258.026 115.545ZM241.747 115.545C241.747 103.518 239.735 93.3661 235.711 85.0913C231.731 76.8164 226.328 70.5537 219.5 66.3033C212.717 62.0528 205.121 59.9276 196.71 59.9276C188.3 59.9276 180.681 62.0528 173.853 66.3033C167.07 70.5537 161.666 76.8164 157.642 85.0913C153.663 93.3661 151.673 103.518 151.673 115.545C151.673 127.573 153.663 137.725 157.642 146C161.666 154.275 167.07 160.537 173.853 164.788C180.681 169.038 188.3 171.163 196.71 171.163C205.121 171.163 212.717 169.038 219.5 164.788C226.328 160.537 231.731 154.275 235.711 146C239.735 137.725 241.747 127.573 241.747 115.545Z" fill="#EF1A1A"/>
<path d="M473.972 46.0909V185H457.693L381.999 75.9347H380.642V185H363.821V46.0909H380.099L456.065 155.428H457.422V46.0909H473.972Z" fill="#0A9F2B"/>
<path d="M365.026 115.545C365.026 130.196 362.38 142.857 357.09 153.528C351.799 164.2 344.542 172.429 335.317 178.217C326.093 184.005 315.557 186.899 303.71 186.899C291.863 186.899 281.327 184.005 272.103 178.217C262.879 172.429 255.621 164.2 250.331 153.528C245.04 142.857 242.395 130.196 242.395 115.545C242.395 100.895 245.04 88.2339 250.331 77.5625C255.621 66.8911 262.879 58.6615 272.103 52.8736C281.327 47.0857 291.863 44.1918 303.71 44.1918C315.557 44.1918 326.093 47.0857 335.317 52.8736C344.542 58.6615 351.799 66.8911 357.09 77.5625C362.38 88.2339 365.026 100.895 365.026 115.545ZM348.747 115.545C348.747 103.518 346.735 93.3661 342.711 85.0913C338.731 76.8164 333.328 70.5537 326.5 66.3033C319.717 62.0528 312.121 59.9276 303.71 59.9276C295.3 59.9276 287.681 62.0528 280.853 66.3033C274.07 70.5537 268.666 76.8164 264.642 85.0913C260.663 93.3661 258.673 103.518 258.673 115.545C258.673 127.573 260.663 137.725 264.642 146C268.666 154.275 274.07 160.537 280.853 164.788C287.681 169.038 295.3 171.163 303.71 171.163C312.121 171.163 319.717 169.038 326.5 164.788C333.328 160.537 338.731 154.275 342.711 146C346.735 137.725 348.747 127.573 348.747 115.545Z" fill="#D0D317"/>
<path d="M69.9602 46.0909L105.773 103.879H106.858L142.67 46.0909H162.476L118.795 115.545L162.476 185H142.67L106.858 128.297H105.773L69.9602 185H50.1548L94.9205 115.545L50.1548 46.0909H69.9602Z" fill="#4334ED"/>
<path d="M476.395 178.432L496.031 178.524L496.006 183.855L476.37 183.763L476.395 178.432ZM476.486 158.916L496.123 159.008L496.102 163.457L485.752 170.503L485.751 170.618L496.068 170.667L496.043 175.998L476.406 175.906L476.428 171.38L486.739 164.448L486.74 164.295L476.461 164.247L476.486 158.916ZM496.134 156.486L476.498 156.394L476.563 142.587L480.859 142.608L480.819 151.083L484.194 151.099L484.23 143.467L488.525 143.487L488.489 151.119L496.159 151.155L496.134 156.486ZM486.48 121.65C488.666 121.661 490.508 122.094 492.006 122.951C493.498 123.809 494.627 124.961 495.394 126.41C496.154 127.858 496.53 129.47 496.522 131.247C496.513 133.037 496.119 134.652 495.339 136.093C494.552 137.528 493.409 138.667 491.909 139.51C490.403 140.346 488.563 140.76 486.39 140.749C484.204 140.739 482.365 140.309 480.873 139.458C479.375 138.601 478.246 137.451 477.486 136.009C476.719 134.561 476.34 132.942 476.348 131.152C476.357 129.375 476.751 127.767 477.531 126.326C478.305 124.885 479.445 123.743 480.951 122.899C482.451 122.056 484.294 121.64 486.48 121.65ZM486.454 127.135C485.278 127.129 484.287 127.281 483.48 127.59C482.666 127.893 482.051 128.348 481.632 128.953C481.208 129.552 480.993 130.292 480.989 131.174C480.985 132.056 481.192 132.802 481.611 133.411C482.024 134.014 482.635 134.474 483.446 134.791C484.25 135.102 485.24 135.26 486.416 135.265C487.592 135.271 488.587 135.122 489.4 134.819C490.207 134.51 490.823 134.055 491.247 133.457C491.666 132.851 491.877 132.108 491.881 131.225C491.885 130.343 491.681 129.601 491.268 128.998C490.849 128.389 490.238 127.929 489.434 127.618C488.623 127.301 487.63 127.14 486.454 127.135ZM480.962 120.618L476.667 120.597L476.747 103.531L481.042 103.551L481.014 109.457L496.355 109.529L496.331 114.784L480.99 114.711L480.962 120.618ZM496.392 101.617L476.756 101.525L476.823 87.3727L481.118 87.3929L481.077 96.2138L484.452 96.2297L484.49 88.1374L488.785 88.1576L488.747 96.2499L492.122 96.2657L492.163 87.4832L496.459 87.5034L496.392 101.617ZM484.285 66.4312L484.26 71.8388C483.812 71.8751 483.406 71.9755 483.04 72.1399C482.675 72.298 482.361 72.5203 482.098 72.8067C481.828 73.0867 481.622 73.4277 481.479 73.8297C481.33 74.2317 481.255 74.6884 481.252 75.1997C481.248 76.0946 481.462 76.8531 481.894 77.4752C482.325 78.0908 482.946 78.5604 483.757 78.8838C484.567 79.2008 485.541 79.362 486.679 79.3674C487.88 79.373 488.888 79.2179 489.701 78.9022C490.508 78.58 491.118 78.113 491.53 77.5013C491.935 76.8896 492.14 76.1522 492.144 75.2893C492.146 74.7971 492.088 74.3558 491.968 73.9653C491.842 73.5748 491.662 73.2352 491.426 72.9464C491.191 72.6577 490.908 72.423 490.576 72.2425C490.238 72.0555 489.859 71.9291 489.437 71.8632L489.501 66.4558C490.332 66.5236 491.177 66.7609 492.038 67.1676C492.893 67.5744 493.683 68.1502 494.408 68.8951C495.127 69.6335 495.704 70.5471 496.14 71.6358C496.576 72.7245 496.791 73.988 496.784 75.4262C496.776 77.2287 496.381 78.8441 495.601 80.2722C494.821 81.694 493.678 82.8169 492.172 83.6407C490.666 84.4582 488.826 84.8619 486.653 84.8517C484.467 84.8414 482.628 84.4109 481.136 83.5601C479.638 82.7093 478.509 81.5662 477.749 80.1308C476.982 78.6953 476.603 77.0955 476.611 75.3313C476.617 74.0913 476.792 72.9511 477.135 71.9108C477.479 70.8705 477.979 69.9588 478.634 69.1756C479.284 68.3925 480.082 67.7634 481.031 67.2885C481.979 66.8135 483.064 66.5278 484.285 66.4312ZM496.569 64.0704L476.933 63.978L476.958 58.6471L484.628 58.6832L484.661 51.6265L476.991 51.5904L477.016 46.2595L496.652 46.3518L496.627 51.6827L488.957 51.6467L488.924 58.7034L496.594 58.7395L496.569 64.0704Z" fill="black"/>
</svg>
