<svg width="477" height="169" viewBox="0 0 477 169" fill="none" xmlns="http://www.w3.org/2000/svg">
<g clip-path="url(#clip0_10_10)">
<path d="M222.026 94.5455C222.026 109.196 219.38 121.857 214.09 132.528C208.799 143.2 201.542 151.429 192.317 157.217C183.093 163.005 172.557 165.899 160.71 165.899C148.863 165.899 138.327 163.005 129.103 157.217C119.879 151.429 112.621 143.2 107.331 132.528C102.04 121.857 99.3949 109.196 99.3949 94.5455C99.3949 79.8949 102.04 67.2339 107.331 56.5625C112.621 45.8911 119.879 37.6615 129.103 31.8736C138.327 26.0857 148.863 23.1918 160.71 23.1918C172.557 23.1918 183.093 26.0857 192.317 31.8736C201.542 37.6615 208.799 45.8911 214.09 56.5625C219.38 67.2339 222.026 79.8949 222.026 94.5455ZM205.747 94.5455C205.747 82.5175 203.735 72.3661 199.711 64.0913C195.731 55.8164 190.328 49.5537 183.5 45.3033C176.717 41.0528 169.121 38.9276 160.71 38.9276C152.3 38.9276 144.681 41.0528 137.853 45.3033C131.07 49.5537 125.666 55.8164 121.642 64.0913C117.663 72.3661 115.673 82.5175 115.673 94.5455C115.673 106.573 117.663 116.725 121.642 125C125.666 133.275 131.07 139.537 137.853 143.788C144.681 148.038 152.3 150.163 160.71 150.163C169.121 150.163 176.717 148.038 183.5 143.788C190.328 139.537 195.731 133.275 199.711 125C203.735 116.725 205.747 106.573 205.747 94.5455Z" fill="#EF1A1A"/>
<path d="M437.972 25.0909V164H421.693L345.999 54.9347H344.642V164H327.821V25.0909H344.099L420.065 134.428H421.422V25.0909H437.972Z" fill="#0A9F2B"/>
<path d="M329.026 94.5455C329.026 109.196 326.38 121.857 321.09 132.528C315.799 143.2 308.542 151.429 299.317 157.217C290.093 163.005 279.557 165.899 267.71 165.899C255.863 165.899 245.327 163.005 236.103 157.217C226.879 151.429 219.621 143.2 214.331 132.528C209.04 121.857 206.395 109.196 206.395 94.5455C206.395 79.8949 209.04 67.2339 214.331 56.5625C219.621 45.8911 226.879 37.6615 236.103 31.8736C245.327 26.0857 255.863 23.1918 267.71 23.1918C279.557 23.1918 290.093 26.0857 299.317 31.8736C308.542 37.6615 315.799 45.8911 321.09 56.5625C326.38 67.2339 329.026 79.8949 329.026 94.5455ZM312.747 94.5455C312.747 82.5175 310.735 72.3661 306.711 64.0913C302.731 55.8164 297.328 49.5537 290.5 45.3033C283.717 41.0528 276.121 38.9276 267.71 38.9276C259.3 38.9276 251.681 41.0528 244.853 45.3033C238.07 49.5537 232.666 55.8164 228.642 64.0913C224.663 72.3661 222.673 82.5175 222.673 94.5455C222.673 106.573 224.663 116.725 228.642 125C232.666 133.275 238.07 139.537 244.853 143.788C251.681 148.038 259.3 150.163 267.71 150.163C276.121 150.163 283.717 148.038 290.5 143.788C297.328 139.537 302.731 133.275 306.711 125C310.735 116.725 312.747 106.573 312.747 94.5455Z" fill="#D0D317"/>
<path d="M33.9602 25.0909L69.7727 82.8793H70.858L106.67 25.0909H126.476L82.7955 94.5455L126.476 164H106.67L70.858 107.297H69.7727L33.9602 164H14.1548L58.9205 94.5455L14.1548 25.0909H33.9602Z" fill="#4334ED"/>
<path d="M440.395 157.432L460.031 157.524L460.006 162.855L440.37 162.763L440.395 157.432ZM440.486 137.916L460.123 138.008L460.102 142.457L449.752 149.503L449.751 149.618L460.068 149.667L460.043 154.998L440.406 154.906L440.428 150.38L450.739 143.448L450.74 143.295L440.461 143.247L440.486 137.916ZM460.134 135.486L440.498 135.394L440.563 121.587L444.859 121.608L444.819 130.083L448.194 130.099L448.23 122.467L452.525 122.487L452.489 130.119L460.159 130.155L460.134 135.486ZM450.48 100.65C452.666 100.661 454.508 101.094 456.006 101.951C457.498 102.809 458.627 103.961 459.394 105.41C460.154 106.858 460.53 108.47 460.522 110.247C460.513 112.037 460.119 113.652 459.339 115.093C458.552 116.528 457.409 117.667 455.909 118.51C454.403 119.346 452.563 119.76 450.39 119.749C448.204 119.739 446.365 119.309 444.873 118.458C443.375 117.601 442.246 116.451 441.486 115.009C440.719 113.561 440.34 111.942 440.348 110.152C440.357 108.375 440.751 106.767 441.531 105.326C442.305 103.885 443.445 102.743 444.951 101.899C446.451 101.056 448.294 100.64 450.48 100.65ZM450.454 106.135C449.278 106.129 448.287 106.281 447.48 106.59C446.666 106.893 446.051 107.348 445.632 107.953C445.208 108.552 444.993 109.292 444.989 110.174C444.985 111.056 445.192 111.802 445.611 112.411C446.024 113.014 446.635 113.474 447.446 113.791C448.25 114.102 449.24 114.26 450.416 114.265C451.592 114.271 452.587 114.122 453.4 113.819C454.207 113.51 454.823 113.055 455.247 112.457C455.666 111.851 455.877 111.108 455.881 110.225C455.885 109.343 455.681 108.601 455.268 107.998C454.849 107.389 454.238 106.929 453.434 106.618C452.623 106.301 451.63 106.14 450.454 106.135ZM444.962 99.6176L440.667 99.5974L440.747 82.5308L445.042 82.551L445.014 88.4572L460.355 88.5293L460.331 93.7835L444.99 93.7114L444.962 99.6176ZM460.392 80.6168L440.756 80.5245L440.823 66.3727L445.118 66.3929L445.077 75.2138L448.452 75.2297L448.49 67.1374L452.785 67.1576L452.747 75.2499L456.122 75.2657L456.163 66.4832L460.459 66.5034L460.392 80.6168ZM448.285 45.4312L448.26 50.8388C447.812 50.8751 447.406 50.9755 447.04 51.1399C446.675 51.298 446.361 51.5203 446.098 51.8067C445.828 52.0867 445.622 52.4277 445.479 52.8297C445.33 53.2317 445.255 53.6884 445.252 54.1997C445.248 55.0946 445.462 55.8531 445.894 56.4752C446.325 57.0908 446.946 57.5604 447.757 57.8838C448.567 58.2008 449.541 58.362 450.679 58.3674C451.88 58.373 452.888 58.2179 453.701 57.9022C454.508 57.58 455.118 57.113 455.53 56.5013C455.935 55.8896 456.14 55.1522 456.144 54.2893C456.146 53.7971 456.088 53.3558 455.968 52.9653C455.842 52.5748 455.662 52.2352 455.426 51.9464C455.191 51.6577 454.908 51.423 454.576 51.2425C454.238 51.0555 453.859 50.9291 453.437 50.8632L453.501 45.4558C454.332 45.5236 455.177 45.7609 456.038 46.1676C456.893 46.5744 457.683 47.1502 458.408 47.8951C459.127 48.6335 459.704 49.5471 460.14 50.6358C460.576 51.7245 460.791 52.988 460.784 54.4262C460.776 56.2287 460.381 57.8441 459.601 59.2722C458.821 60.694 457.678 61.8169 456.172 62.6407C454.666 63.4582 452.826 63.8619 450.653 63.8517C448.467 63.8414 446.628 63.4109 445.136 62.5601C443.638 61.7093 442.509 60.5662 441.749 59.1308C440.982 57.6953 440.603 56.0955 440.611 54.3313C440.617 53.0913 440.792 51.9511 441.135 50.9108C441.479 49.8705 441.979 48.9588 442.634 48.1756C443.284 47.3925 444.082 46.7634 445.031 46.2885C445.979 45.8135 447.064 45.5278 448.285 45.4312ZM460.569 43.0704L440.933 42.978L440.958 37.6471L448.628 37.6832L448.661 30.6265L440.991 30.5904L441.016 25.2595L460.652 25.3518L460.627 30.6827L452.957 30.6467L452.924 37.7034L460.594 37.7395L460.569 43.0704Z" fill="black"/>
<path d="M142.792 95.6832L153.639 82.6667" stroke="#333333" stroke-width="5" stroke-linecap="round" stroke-linejoin="round"/>
<path d="M142.792 95.6833L153.639 108.7" stroke="#333333" stroke-width="5" stroke-linecap="round" stroke-linejoin="round"/>
<path d="M184.948 95.6832L174.101 82.6667" stroke="#333333" stroke-width="5" stroke-linecap="round" stroke-linejoin="round"/>
<path d="M184.948 95.6833L174.101 108.7" stroke="#333333" stroke-width="5" stroke-linecap="round" stroke-linejoin="round"/>
<path d="M246.922 103.63C246.922 113.749 255.016 121.952 265 121.952C274.984 121.952 283.077 113.749 283.077 103.63V88.7424H246.922V103.63Z" fill="#1C274C"/>
<path d="M268.389 83.2447H282.76C281.382 75.8803 275.655 68.7031 268.389 67.3062V83.2447Z" fill="#1C274C"/>
<path d="M261.611 83.2447V67.3062C254.345 68.7031 248.618 75.8803 247.24 83.2447H261.611Z" fill="#1C274C"/>
</g>
<defs>
<clipPath id="clip0_10_10">
<rect width="477" height="169" fill="white"/>
</clipPath>
</defs>
</svg>
